<?xml version="1.0" encoding="UTF-8" standalone="no"?>
<svg
   xmlns:dc="http://purl.org/dc/elements/1.1/"
   xmlns:cc="http://creativecommons.org/ns#"
   xmlns:rdf="http://www.w3.org/1999/02/22-rdf-syntax-ns#"
   xmlns:svg="http://www.w3.org/2000/svg"
   xmlns="http://www.w3.org/2000/svg"
   xmlns:sodipodi="http://sodipodi.sourceforge.net/DTD/sodipodi-0.dtd"
   xmlns:inkscape="http://www.inkscape.org/namespaces/inkscape"
   sodipodi:docname="checkbox-unchecked.svg"
   inkscape:version="0.91 r13725"
   id="svg2"
   viewBox="0 0 149.15041 149.14843"
   version="1.1"
   width="149.15"
   height="149.15">
  <metadata
     id="metadata10">
    <rdf:RDF>
      <cc:Work
         rdf:about="">
        <dc:format>image/svg+xml</dc:format>
        <dc:type
           rdf:resource="http://purl.org/dc/dcmitype/StillImage" />
        <dc:title />
      </cc:Work>
    </rdf:RDF>
  </metadata>
  <defs
     id="defs8" />
  <sodipodi:namedview
     inkscape:current-layer="svg2"
     inkscape:window-maximized="1"
     inkscape:window-y="0"
     inkscape:window-x="0"
     inkscape:cy="69.376149"
     inkscape:cx="25.596591"
     inkscape:zoom="4.4754196"
     showgrid="false"
     id="namedview6"
     inkscape:window-height="1047"
     inkscape:window-width="1920"
     inkscape:pageshadow="2"
     inkscape:pageopacity="0"
     guidetolerance="10"
     gridtolerance="10"
     objecttolerance="10"
     borderopacity="1"
     bordercolor="#666666"
     pagecolor="#ffffff" />
  <path
     d="m 15.734,10.732 117.68,0 c 2.77,0 5,2.23 5,5 l 0,117.68 c 0,2.77 -2.23,5 -5,5 l -117.68,0 c -2.77,0 -5.002,-2.23 -5.002,-5 l 0,-117.68 c 0,-2.77 2.232,-5 5.002,-5 z"
     id="path4"
     inkscape:connector-curvature="0"
     style="fill:#000000"
     sodipodi:nodetypes="sssssssss" />
  <path
     style="fill:#ffffff;fill-opacity:1;fill-rule:nonzero;stroke:#000000;stroke-width:0.22344273;stroke-opacity:1"
     d="m 13.56096,137.70137 c -0.793681,-0.40246 -1.443509,-0.94874 -1.883469,-1.58333 l -0.671711,-0.96887 -0.06542,-60.031 c -0.04661,-42.769355 0.0045,-60.273 0.177661,-60.872612 0.308664,-1.068695 1.372123,-2.285044 2.547912,-2.914215 l 0.914927,-0.489582 59.994374,0 59.994376,0 0.91493,0.489582 c 1.17579,0.629171 2.23925,1.84552 2.54791,2.914215 0.17318,0.599612 0.22427,18.103257 0.17766,60.872612 l -0.0654,60.031 -0.67415,0.95918 c -0.42083,0.59876 -1.12309,1.19371 -1.86892,1.58333 l -1.19477,0.62416 -59.817075,0 -59.817071,0 -1.211758,-0.61447 z"
     id="path4133"
     inkscape:connector-curvature="0"
     transform="matrix(1.0000027,0,0,1.0000027,0,-9.8419459e-4)" />
</svg>
